<svg width="1920" height="1080" viewBox="0 0 1920 1080" fill="none" xmlns="http://www.w3.org/2000/svg">
<g clip-path="url(#clip0)">
<rect width="1920" height="1080" fill="white"/>
<rect width="1920" height="1080" fill="#E3EDEA"/>
<rect x="337" y="117" width="300" height="206" rx="38" fill="#E4C0C0"/>
<rect x="376" y="222" width="355" height="239" rx="26" fill="url(#paint0_diamond)"/>
<path d="M698.584 672.555C698.584 785.309 1058.86 1090.18 427.958 938.563C295.717 938.563 110 722.912 110 610.158C110 497.405 217.202 406 349.443 406C481.684 406 914.083 541.741 698.584 672.555Z" fill="url(#paint1_linear)"/>
<path d="M1514.07 178.718C1514.07 326.226 1103.39 735.091 1820.42 536.744C1965.98 466.571 2183 244.596 2183 97.0877C2183 -50.4208 2061.16 -170 1910.87 -170C1760.58 -170 1269.15 7.58109 1514.07 178.718Z" fill="url(#paint2_linear)"/>
<rect x="290" y="544" width="445" height="50" rx="18" fill="#DAD5D5"/>
<rect x="408" y="590" width="197" height="26" rx="13" fill="#FEF3F3"/>
<rect x="276" y="616" width="221" height="21" rx="6" fill="#FEF3F3"/>
<rect x="303" y="635" width="103" height="25" rx="11" fill="#FEF3F3"/>
<rect x="258" y="338" width="300" height="206" rx="38" fill="url(#paint3_linear)"/>
<rect x="447" y="238" width="300" height="206" rx="38" fill="url(#paint4_linear)"/>
<rect x="482" y="281" width="29" height="30" fill="#C4C4C4"/>
<path d="M392.469 580.2C390.785 580.2 389.335 579.825 388.119 579.075C386.919 578.308 385.994 577.283 385.344 576C384.694 574.717 384.369 573.292 384.369 571.725C384.369 570.158 384.702 568.733 385.369 567.45C386.035 566.167 386.977 565.15 388.194 564.4C389.427 563.633 390.869 563.25 392.519 563.25C394.302 563.25 395.844 563.692 397.144 564.575C398.46 565.442 399.427 566.567 400.044 567.95H397.994C397.494 567.067 396.794 566.367 395.894 565.85C395.01 565.333 393.935 565.075 392.669 565.075C391.335 565.075 390.185 565.375 389.219 565.975C388.252 566.558 387.51 567.35 386.994 568.35C386.494 569.35 386.244 570.475 386.244 571.725C386.244 572.958 386.494 574.083 386.994 575.1C387.494 576.1 388.219 576.9 389.169 577.5C390.135 578.083 391.285 578.375 392.619 578.375C393.619 578.375 394.56 578.158 395.444 577.725C396.344 577.292 397.069 576.667 397.619 575.85C398.185 575.033 398.469 574.05 398.469 572.9H392.419V571.2H400.194V580H398.469V577.075C398.119 577.608 397.669 578.117 397.119 578.6C396.569 579.067 395.902 579.45 395.119 579.75C394.352 580.05 393.469 580.2 392.469 580.2ZM403.485 580V563.45H405.36V580H403.485ZM409.418 580V563.45H421.368V565.25H411.293V571H420.268V572.825H411.293V580H409.418ZM428.093 580V565.225H422.318V563.45H435.743V565.225H429.968V580H428.093ZM438.129 580V563.45H440.004V580H438.129ZM444.061 580V563.45H446.236L456.461 577.375V563.45H458.336V580H456.161L445.936 566.025V580H444.061ZM469.446 580.2C467.763 580.2 466.313 579.825 465.096 579.075C463.896 578.308 462.971 577.283 462.321 576C461.671 574.717 461.346 573.292 461.346 571.725C461.346 570.158 461.679 568.733 462.346 567.45C463.013 566.167 463.954 565.15 465.171 564.4C466.404 563.633 467.846 563.25 469.496 563.25C471.279 563.25 472.821 563.692 474.121 564.575C475.438 565.442 476.404 566.567 477.021 567.95H474.971C474.471 567.067 473.771 566.367 472.871 565.85C471.988 565.333 470.913 565.075 469.646 565.075C468.313 565.075 467.163 565.375 466.196 565.975C465.229 566.558 464.488 567.35 463.971 568.35C463.471 569.35 463.221 570.475 463.221 571.725C463.221 572.958 463.471 574.083 463.971 575.1C464.471 576.1 465.196 576.9 466.146 577.5C467.113 578.083 468.263 578.375 469.596 578.375C470.596 578.375 471.538 578.158 472.421 577.725C473.321 577.292 474.046 576.667 474.596 575.85C475.163 575.033 475.446 574.05 475.446 572.9H469.396V571.2H477.171V580H475.446V577.075C475.096 577.608 474.646 578.117 474.096 578.6C473.546 579.067 472.879 579.45 472.096 579.75C471.329 580.05 470.446 580.2 469.446 580.2ZM491.107 580V563.45H493.282L499.207 571.3L505.032 563.45H507.207V580H505.332V566.3L499.207 574.175L492.982 566.3V580H491.107ZM509.299 580L516.324 563.45H518.674L525.699 580H523.624L521.599 575.2H513.399L511.374 580H509.299ZM514.124 573.475H520.874L517.499 565.4L514.124 573.475ZM527.801 580V563.45H534.776C535.76 563.45 536.701 563.642 537.601 564.025C538.518 564.392 539.335 564.933 540.051 565.65C540.768 566.367 541.335 567.233 541.751 568.25C542.168 569.267 542.376 570.425 542.376 571.725C542.376 573.025 542.168 574.183 541.751 575.2C541.335 576.217 540.768 577.083 540.051 577.8C539.335 578.517 538.518 579.067 537.601 579.45C536.701 579.817 535.76 580 534.776 580H527.801ZM529.676 578.225H534.701C535.885 578.225 536.91 577.925 537.776 577.325C538.643 576.725 539.31 575.933 539.776 574.95C540.26 573.967 540.501 572.892 540.501 571.725C540.501 570.542 540.26 569.458 539.776 568.475C539.31 567.492 538.643 566.708 537.776 566.125C536.91 565.525 535.885 565.225 534.701 565.225H529.676V578.225ZM545.379 580V563.45H557.554V565.25H547.254V570.8H556.454V572.625H547.254V578.2H557.554V580H545.379ZM565.912 580V563.45H578.087V565.25H567.787V570.8H576.987V572.625H567.787V578.2H578.087V580H565.912ZM579.172 580L586.197 563.45H588.547L595.572 580H593.497L591.472 575.2H583.272L581.247 580H579.172ZM583.997 573.475H590.747L587.372 565.4L583.997 573.475ZM603.599 580.2C601.966 580.2 600.641 579.983 599.624 579.55C598.608 579.1 597.841 578.483 597.324 577.7C596.824 576.917 596.533 576.033 596.449 575.05H598.399C598.449 575.85 598.716 576.5 599.199 577C599.683 577.483 600.316 577.842 601.099 578.075C601.899 578.308 602.774 578.425 603.724 578.425C605.124 578.425 606.233 578.183 607.049 577.7C607.866 577.2 608.274 576.467 608.274 575.5C608.274 574.917 608.066 574.45 607.649 574.1C607.249 573.733 606.708 573.433 606.024 573.2C605.358 572.967 604.624 572.758 603.824 572.575C603.024 572.375 602.216 572.167 601.399 571.95C600.599 571.733 599.858 571.458 599.174 571.125C598.508 570.792 597.966 570.367 597.549 569.85C597.149 569.317 596.949 568.642 596.949 567.825C596.949 566.475 597.466 565.375 598.499 564.525C599.549 563.675 601.108 563.25 603.174 563.25C604.641 563.25 605.849 563.475 606.799 563.925C607.749 564.358 608.458 564.933 608.924 565.65C609.408 566.367 609.674 567.142 609.724 567.975H607.799C607.699 567.142 607.283 566.442 606.549 565.875C605.816 565.292 604.691 565 603.174 565C602.241 565 601.483 565.092 600.899 565.275C600.316 565.458 599.866 565.7 599.549 566C599.249 566.283 599.041 566.583 598.924 566.9C598.824 567.217 598.774 567.517 598.774 567.8C598.774 568.35 598.974 568.8 599.374 569.15C599.791 569.483 600.333 569.767 600.999 570C601.683 570.217 602.433 570.417 603.249 570.6C604.066 570.783 604.874 570.992 605.674 571.225C606.491 571.442 607.233 571.725 607.899 572.075C608.583 572.408 609.124 572.842 609.524 573.375C609.941 573.908 610.149 574.592 610.149 575.425C610.149 576.958 609.566 578.142 608.399 578.975C607.233 579.792 605.633 580.2 603.599 580.2ZM617.738 580V573.45L610.788 563.45H613.063L618.663 571.5L624.263 563.45H626.538L619.613 573.45V580H617.738Z" fill="#3C3535"/>
<path d="M595.62 364.24C593.98 364.24 592.52 363.88 591.24 363.16C589.98 362.42 588.99 361.39 588.27 360.07C587.55 358.75 587.19 357.21 587.19 355.45V344.14H589.44V355.51C589.44 357.05 589.73 358.3 590.31 359.26C590.91 360.22 591.68 360.93 592.62 361.39C593.58 361.83 594.58 362.05 595.62 362.05C596.68 362.05 597.68 361.83 598.62 361.39C599.56 360.93 600.33 360.22 600.93 359.26C601.53 358.3 601.83 357.05 601.83 355.51V344.14H604.08V355.45C604.08 357.19 603.72 358.72 603 360.04C602.28 361.36 601.28 362.39 600 363.13C598.74 363.87 597.28 364.24 595.62 364.24ZM608.7 364V344.14H617.64C619.76 344.14 621.43 344.72 622.65 345.88C623.87 347.02 624.48 348.57 624.48 350.53C624.48 352.49 623.87 354.05 622.65 355.21C621.43 356.35 619.76 356.92 617.64 356.92H610.95V364H608.7ZM610.95 354.82H617.49C619.05 354.82 620.23 354.44 621.03 353.68C621.83 352.92 622.23 351.87 622.23 350.53C622.23 349.21 621.83 348.17 621.03 347.41C620.23 346.65 619.05 346.27 617.49 346.27H610.95V354.82ZM627.537 364V344.14H629.787V352.96H641.337V344.14H643.587V364H641.337V355.15H629.787V364H627.537ZM646.115 364L654.545 344.14H657.365L665.795 364H663.305L660.875 358.24H651.035L648.605 364H646.115ZM651.905 356.17H660.005L655.955 346.48L651.905 356.17ZM665.979 364L674.409 344.14H677.229L685.659 364H683.169L680.739 358.24H670.899L668.469 364H665.979ZM671.769 356.17H679.869L675.819 346.48L671.769 356.17ZM688.182 364V344.14H697.692C699.732 344.14 701.352 344.7 702.552 345.82C703.772 346.94 704.382 348.45 704.382 350.35C704.382 351.63 704.132 352.65 703.632 353.41C703.152 354.17 702.542 354.75 701.802 355.15C701.062 355.53 700.322 355.81 699.582 355.99L704.802 364H702.132L697.332 356.38H690.432V364H688.182ZM690.432 354.25H697.302C698.022 354.25 698.752 354.14 699.492 353.92C700.232 353.7 700.852 353.31 701.352 352.75C701.872 352.17 702.132 351.37 702.132 350.35C702.132 349.09 701.702 348.1 700.842 347.38C699.982 346.64 698.842 346.27 697.422 346.27H690.432V354.25Z" fill="white"/>
</g>
<defs>
<radialGradient id="paint0_diamond" cx="0" cy="0" r="1" gradientUnits="userSpaceOnUse" gradientTransform="translate(376 171) rotate(58.5305) scale(340.009 505.035)">
<stop offset="0.0155593" stop-color="white"/>
<stop offset="1" stop-color="white" stop-opacity="0"/>
</radialGradient>
<linearGradient id="paint1_linear" x1="455.5" y1="406" x2="166.104" y2="923.687" gradientUnits="userSpaceOnUse">
<stop stop-color="#48C8B8"/>
<stop offset="0.503636" stop-color="#3AAFBF" stop-opacity="0.677083"/>
<stop offset="1" stop-color="#67B0A8" stop-opacity="0"/>
</linearGradient>
<linearGradient id="paint2_linear" x1="1191.99" y1="42.6678" x2="2189.97" y2="451.104" gradientUnits="userSpaceOnUse">
<stop stop-color="#48C8B8"/>
<stop offset="0.169468" stop-color="#47E4EE" stop-opacity="0.677083"/>
<stop offset="1" stop-color="#67B0A8" stop-opacity="0"/>
</linearGradient>
<linearGradient id="paint3_linear" x1="408" y1="338" x2="558" y2="544" gradientUnits="userSpaceOnUse">
<stop stop-color="#8B6C6C"/>
<stop offset="0.291667" stop-color="#665D5D" stop-opacity="0.708333"/>
<stop offset="1" stop-color="#8B8787" stop-opacity="0"/>
</linearGradient>
<linearGradient id="paint4_linear" x1="736.5" y1="291.5" x2="447" y2="444" gradientUnits="userSpaceOnUse">
<stop stop-color="#FCE1E1"/>
<stop offset="0.00305774" stop-color="#171515"/>
<stop offset="0.984596" stop-color="#171515"/>
<stop offset="0.9999" stop-color="#070707" stop-opacity="0.171233"/>
<stop offset="1" stop-color="#0B0A0A" stop-opacity="0"/>
</linearGradient>
<clipPath id="clip0">
<rect width="1920" height="1080" fill="white"/>
</clipPath>
</defs>
</svg>
